<svg id="Layer_1" data-name="Layer 1" xmlns="http://www.w3.org/2000/svg" viewBox="0 0 2073 2073"><defs><style>.cls-1{fill:#007fff;stroke:#000;stroke-miterlimit:10;stroke-width:37px;}</style></defs><title>Artboard 1</title><g id="svg_1" data-name="svg 1"><path id="svg_2" data-name="svg 2" class="cls-1" d="M1031.56,1919.88c-41.44-203.4-114.49-372.67-203-529.55-65.64-116.37-141.67-223.78-212-336.63-23.49-37.67-43.76-77.46-66.32-116.56C505.11,859,468.53,768.33,470.85,650.76c2.28-114.87,35.5-207,83.41-282.36C633.05,244.48,765,142.88,942.13,116.18c144.79-21.83,280.55,15,376.81,71.35,78.67,46,139.59,107.45,185.9,179.86,48.33,75.59,81.62,164.89,84.41,281.36,1.43,59.67-8.34,114.94-22.11,160.78-13.93,46.39-36.34,85.18-56.27,126.61-38.91,80.86-87.7,155-136.66,229.1C1228.38,1386.07,1091.5,1611.28,1031.56,1919.88Z"/><circle id="svg_4" data-name="svg 4" cx="1030.07" cy="649.46" r="195.96"/></g></svg>